<svg xmlns="http://www.w3.org/2000/svg" viewBox="0 0 500 500"><g id="freepik--Cloud--inject-2"><g id="freepik--Clouds--inject-2"><path id="freepik--cloud--inject-2" d="M420.31,66l7.63,4.41c0-.34-.06-.68-.06-1V67.15c0-3.94,2.76-5.53,6.17-3.57a12,12,0,0,1,3.68,3.54c.56-5,4.44-6.79,9.16-4.07,5.09,2.94,9.23,10.1,9.23,16v3.31a8.7,8.7,0,0,1-.78,3.83l6.34,3.66a7.57,7.57,0,0,1,3.42,5.93c0,2.19-1.53,3.07-3.42,2L420.31,73.87a7.58,7.58,0,0,1-3.42-5.93C416.89,65.75,418.42,64.87,420.31,66Z" style="fill:#ebebeb"></path><path id="freepik--cloud--inject-2" d="M84.41,59.66,78.65,63a6.61,6.61,0,0,0,0-.76V60.56c0-3-2.09-4.18-4.66-2.69a9,9,0,0,0-2.78,2.67c-.42-3.74-3.35-5.13-6.91-3.07a15.4,15.4,0,0,0-7,12.06V72A6.52,6.52,0,0,0,58,74.92l-4.79,2.77a5.68,5.68,0,0,0-2.58,4.47c0,1.65,1.15,2.32,2.58,1.49l31.22-18A5.71,5.71,0,0,0,87,61.15C87,59.51,85.84,58.84,84.41,59.66Z" style="fill:#ebebeb"></path></g></g><g id="freepik--Floor--inject-2"><g id="freepik--floor--inject-2"><polygon points="250 471.44 23.75 340.82 250 210.37 476.25 340.82 250 471.44" style="fill:#FF513B"></polygon><g style="opacity:0.30000000000000004"><polygon points="250 471.44 23.75 340.82 250 210.37 476.25 340.82 250 471.44" style="fill:#fff"></polygon></g><polygon points="23.75 340.82 23.75 351.66 250 482.28 250 471.44 23.75 340.82" style="fill:#FF513B"></polygon><polygon points="23.75 340.82 23.75 351.66 250 482.28 250 471.44 23.75 340.82" style="opacity:0.15"></polygon><polygon points="250 482.28 476.25 351.66 476.25 340.82 250 471.44 250 482.28" style="fill:#FF513B"></polygon></g></g><g id="freepik--Trees--inject-2"><g id="freepik--Tree--inject-2"><path id="freepik--Bush--inject-2" d="M39.13,345c6.54,1,12.4-.76,13.4-7.84a62.84,62.84,0,0,0,0-17.54c-.3-2.11-1-4.59-3.1-5.13-1.69-.45-3.46.79-4.21,2.36a11.47,11.47,0,0,0-.72,5.15c-1-2.29-2.57-4.94-5.09-5-2.33-.05-4.08,2.39-4.16,4.72s1,4.5,2.12,6.56c-1.76-.24-3.75-.37-5.1.8-1.6,1.39-1.42,4.07-.18,5.8s3.22,2.73,5.13,3.67A2.32,2.32,0,0,0,34.11,340a3.53,3.53,0,0,0,1.34,3.52A7.51,7.51,0,0,0,39.13,345Z" style="fill:#263238"></path><g id="freepik--tree--inject-2"><path d="M61,273.42a6.7,6.7,0,0,0-3.61.65,37,37,0,0,0-5.89,4.17A11.89,11.89,0,0,1,45,281.06c-2.41.08-5-1.42-5.45-3.79a3.42,3.42,0,0,0-.3-1.2,1.75,1.75,0,0,0-2.06-.53,10.66,10.66,0,0,0-2,1.14c-2.43,1.44-5.49,1.11-8.29.71-2.33-.34-5.27-1.37-5.26-3.73,0-1.53,1.35-2.67,2.4-3.78s1.92-2.9.95-4.1a2.78,2.78,0,0,0-1.34-.82c-2.92-.95-6.48.31-8.94-1.51a5.15,5.15,0,0,1-1.3-6.17,7.84,7.84,0,0,1,5.25-4c2-.5,4.45-.73,5.17-2.61.64-1.65-.64-3.44-2.09-4.45s-3.19-1.73-4.2-3.18a5,5,0,0,1-.14-5.21,6.38,6.38,0,0,1,4.39-3,9.43,9.43,0,0,0,2.66-.58,1.77,1.77,0,0,0,1-2.24c-.27-.48-.82-.73-1.14-1.18a2.13,2.13,0,0,1,.78-2.77,11,11,0,0,1,3-1.14c2.11-.71,4.16-2.75,3.53-4.89s-3.68-2.94-4.58-5.08c-.8-1.89.47-4.09,2.16-5.25s3.76-1.63,5.61-2.5,3.65-2.43,3.8-4.47-1.42-3.86-2.7-5.53-2.37-4-1.25-5.77S38.08,191.61,40,191a8.8,8.8,0,0,0,5.31-4.79c.51-1.19.76-2.48,1.37-3.61,1.91-3.53,6.71-5.08,10.43-4.64,2,.23,2.6,1,3.54,2.4A5.58,5.58,0,0,1,62,182.8c.28,1.71-.62,3.88,1,5.18,2.44,2,6.18-.69,6,3.73a19.05,19.05,0,0,1-.82,5.51c-.67,1.85-2,2.66-.89,4.74,1.43,2.69,2.37,2.68,5.24,2.67,2.09,0,3.82-.11,5.35,1.46,2.68,2.78,1.09,5.29-1.3,7.43-2.7,2.43-1.27,3.5-.91,6.65.16,1.52-.18,2,1.18,3,2.56,1.9,4,1.26,3.27,5-.66,3.41.36,2.24,3.31,3.51,2.61,1.12,4.34,3.94,6.46,5.7,1.36,1.13,3.44,2,3.57,4,.24,3.8-4.48,3-6.72,3.88-3.67,1.48-2.57,6.28.29,8.08,3,1.91,7.45,2.61,7.69,7,.19,3.34-1.71,4.07-4.29,5.19-2.07.89-1.8,1.15-1.8,3.61,0,5-1.67,6.38-6.57,5.57-1.35-.22-3.39-.79-4.73-.38-1.88.56-1.24,1-1.3,2.59-.13,4-4.8,2.88-6.78,1.16C67,276,64.1,273.72,61,273.42Z" style="fill:#FF513B"></path><path d="M45,281.06a11.89,11.89,0,0,0,6.53-2.82,37,37,0,0,1,5.89-4.17,6.7,6.7,0,0,1,3.61-.65c3.09.3,6,2.6,8.24,4.58,2,1.72,6.65,2.85,6.78-1.16.06-1.57-.58-2,1.3-2.59,1.34-.41,3.38.16,4.73.38,4.9.81,6.57-.59,6.57-5.57,0-2.46-.27-2.72,1.8-3.61,2.58-1.12,4.48-1.85,4.29-5.19-.24-4.35-4.66-5-7.69-7-2.86-1.8-4-6.6-.29-8.08,2.24-.91,7-.08,6.72-3.88-.13-2-2.21-2.85-3.57-4-2.12-1.76-3.85-4.58-6.46-5.7-3-1.27-4-.1-3.31-3.51.72-3.73-.71-3.09-3.27-5-1.36-1-1-1.47-1.18-3-.36-3.15-1.79-4.22.91-6.65,2.39-2.14,4-4.65,1.3-7.43-1.53-1.57-3.26-1.46-5.35-1.46-2.87,0-3.81,0-5.24-2.67-1.11-2.08.22-2.89.89-4.74a19.05,19.05,0,0,0,.82-5.51c.13-4.42-3.61-1.76-6-3.73-1.61-1.3-.71-3.47-1-5.18a3.66,3.66,0,0,0-.12-.5,12.75,12.75,0,0,0-1.39,4.17,5.46,5.46,0,0,0,2.24,5.32,9.61,9.61,0,0,1,1.65,1c1,.91.91,2.55.36,3.79s-1.47,2.3-2,3.57a6,6,0,0,0,2.36,7.06c2.33,1.44,6.05,1.75,6.45,4.45.57,3.86-6.9,5.42-6.06,9.22.37,1.63,2.13,2.45,3.36,3.59a7.93,7.93,0,0,1,2,7.33,13.57,13.57,0,0,1-4,6.73c-1.39,1.36-3.13,3.22-2.2,4.93s3.57,1.35,5,2.67c1.19,1.12,1.06,3.07.51,4.61s-1.43,3-1.49,4.65c-.07,2,1.06,3.75,2.11,5.4s2.12,3.5,1.91,5.45c-.5,4.81-6.1,3.4-8.6,1.59a8.5,8.5,0,0,0-11.29,1.64c-1,1.25-1.55,2.76-2.5,4s-2.5,2.28-4,1.94a3.56,3.56,0,0,1-2.49-3c-.33-1.44,0-3.22-1.64-3.88s-3.62,0-5.2.81a13.28,13.28,0,0,1-2.31,1.12,11.82,11.82,0,0,1-2.83.43,4.55,4.55,0,0,1-1.72-.21,2.09,2.09,0,0,1-1.27-1.11,7.62,7.62,0,0,1-.17-2.14c-.18-1.77-1.55-2.13-2.93-2.76a11.12,11.12,0,0,0-5.18-1,26.44,26.44,0,0,0-4,.62,19.77,19.77,0,0,0,4,.27h.61l.62,0h.15c.26,0,.51.06.76.11l.19,0c.26.06.51.12.77.2a3.37,3.37,0,0,1,.73.32,2,2,0,0,1,.61.5,2.17,2.17,0,0,1,.29,2.08,5.42,5.42,0,0,1-1.24,2c-1.05,1.11-2.39,2.25-2.4,3.78a2.58,2.58,0,0,0,.75,1.84,2.76,2.76,0,0,0,.3.29,5.3,5.3,0,0,0,1.1.7,10.84,10.84,0,0,0,3.11.9,25.64,25.64,0,0,0,4.28.34c.36,0,.71,0,1.06-.09a7.54,7.54,0,0,0,3-1c.33-.19.65-.42,1-.63a4.86,4.86,0,0,1,1-.51,2.13,2.13,0,0,1,.57-.11,1.86,1.86,0,0,1,1.1.24,1.24,1.24,0,0,1,.39.4,1.39,1.39,0,0,1,.12.28,3,3,0,0,1,.13.61c0,.11,0,.21.05.31C40,279.64,42.57,281.14,45,281.06Z" style="opacity:0.15"></path><path d="M68.65,232.48,55.28,259V246.79l-1.36-52-2,52V255l-14.7-25.7,14.7,31.55v81.73a.82.82,0,0,0,.49.68,2.59,2.59,0,0,0,2.36,0,.82.82,0,0,0,.49-.68V265.76Z" style="fill:#37474f"></path></g><g id="freepik--bush--inject-2"><path id="freepik--bush--inject-2" d="M50.48,347.76l15.64-9a12.66,12.66,0,0,0,3.39-3.2,8.92,8.92,0,0,0,1.91-4.05,2.09,2.09,0,0,0-.17-1.54c-.56-.83-1.9-.54-2.64.13s-1.34,1.26-2.13,2.1a23.49,23.49,0,0,0,.3-5.43,2.41,2.41,0,0,0-.65-1.8,2,2,0,0,0-2.19,0c-2,1.11-2.92,3.55-3.63,5.77a18.89,18.89,0,0,0-.2-6.91c-.55-2.46-3.37-3.43-4.34-1.07a13.84,13.84,0,0,0-.82,3.93,15.92,15.92,0,0,0,.35,5.2,16.51,16.51,0,0,0-4.17-5.78,2.54,2.54,0,0,0-2.41-.84c-1,.38-1.15,1.7-1,2.75a14.72,14.72,0,0,0,2.13,6.29,13.34,13.34,0,0,0-5.29-2.05,1.58,1.58,0,0,0-1.66.54,2.14,2.14,0,0,0,.36,2.17,13.06,13.06,0,0,0,4.21,3.9,13.63,13.63,0,0,0-5.12-.53,1.77,1.77,0,0,0-1.37.57c-.45.65.07,1.53.64,2.08a15.48,15.48,0,0,0,3.66,2.18,5.39,5.39,0,0,0-2.26.38,1.79,1.79,0,0,0-1.07,1.85,2.29,2.29,0,0,0,1.65,1.46C46.6,347.92,47.45,348.26,50.48,347.76Z" style="fill:#FF513B"></path><path id="freepik--bush--inject-2" d="M50.48,347.76l15.64-9a12.66,12.66,0,0,0,3.39-3.2,8.92,8.92,0,0,0,1.91-4.05,2.09,2.09,0,0,0-.17-1.54c-.56-.83-1.9-.54-2.64.13s-1.34,1.26-2.13,2.1a23.49,23.49,0,0,0,.3-5.43,2.41,2.41,0,0,0-.65-1.8,2,2,0,0,0-2.19,0c-2,1.11-2.92,3.55-3.63,5.77a18.89,18.89,0,0,0-.2-6.91c-.55-2.46-3.37-3.43-4.34-1.07a13.84,13.84,0,0,0-.82,3.93,15.92,15.92,0,0,0,.35,5.2,16.51,16.51,0,0,0-4.17-5.78,2.54,2.54,0,0,0-2.41-.84c-1,.38-1.15,1.7-1,2.75a14.72,14.72,0,0,0,2.13,6.29,13.34,13.34,0,0,0-5.29-2.05,1.58,1.58,0,0,0-1.66.54,2.14,2.14,0,0,0,.36,2.17,13.06,13.06,0,0,0,4.21,3.9,13.63,13.63,0,0,0-5.12-.53,1.77,1.77,0,0,0-1.37.57c-.45.65.07,1.53.64,2.08a15.48,15.48,0,0,0,3.66,2.18,5.39,5.39,0,0,0-2.26.38,1.79,1.79,0,0,0-1.07,1.85,2.29,2.29,0,0,0,1.65,1.46C46.6,347.92,47.45,348.26,50.48,347.76Z" style="opacity:0.25"></path></g></g><g id="freepik--tree--inject-2"><path id="freepik--bush--inject-2" d="M459.85,341.81c-6,1-11.41-.7-12.33-7.21a57.79,57.79,0,0,1,0-16.14c.27-1.93,1-4.22,2.85-4.72a3.6,3.6,0,0,1,3.87,2.18,10.36,10.36,0,0,1,.66,4.73c.95-2.11,2.37-4.54,4.69-4.59,2.13-.05,3.75,2.2,3.82,4.33s-.95,4.15-1.95,6c1.62-.22,3.45-.34,4.69.73,1.47,1.28,1.31,3.75.17,5.34a12,12,0,0,1-4.72,3.38,2.13,2.13,0,0,1,2.87,1.4,3.24,3.24,0,0,1-1.23,3.23A7,7,0,0,1,459.85,341.81Z" style="fill:#263238"></path><g id="freepik--tree--inject-2"><path d="M439.72,276a6.22,6.22,0,0,1,3.32.6,33.82,33.82,0,0,1,5.41,3.84,11,11,0,0,0,6,2.59c2.22.08,4.61-1.3,5-3.48a3.13,3.13,0,0,1,.28-1.11,1.61,1.61,0,0,1,1.9-.49,10.09,10.09,0,0,1,1.82,1.05c2.24,1.32,5,1,7.63.65,2.14-.31,4.84-1.26,4.83-3.42,0-1.42-1.23-2.46-2.2-3.49s-1.77-2.67-.88-3.76a2.57,2.57,0,0,1,1.24-.76c2.68-.87,6,.29,8.22-1.39a4.72,4.72,0,0,0,1.19-5.67,7.21,7.21,0,0,0-4.83-3.68c-1.79-.45-4.08-.67-4.75-2.4-.59-1.51.59-3.15,1.92-4.09s2.94-1.58,3.87-2.92a4.65,4.65,0,0,0,.13-4.8,5.88,5.88,0,0,0-4-2.77,8.79,8.79,0,0,1-2.45-.53,1.65,1.65,0,0,1-.91-2.07c.25-.44.76-.67,1.05-1.08a2,2,0,0,0-.72-2.55,10.3,10.3,0,0,0-2.74-1.05c-1.94-.64-3.83-2.53-3.25-4.49s3.39-2.71,4.22-4.67c.73-1.74-.43-3.77-2-4.83s-3.45-1.5-5.16-2.3-3.35-2.23-3.49-4.12,1.3-3.55,2.48-5.08,2.18-3.67,1.15-5.31-3.19-1.66-5-2.23a8,8,0,0,1-4.88-4.4c-.47-1.09-.7-2.28-1.26-3.32-1.76-3.25-6.18-4.67-9.59-4.27-1.8.21-2.39.9-3.26,2.22a5.15,5.15,0,0,0-1.2,2.24c-.25,1.57.57,3.56-.91,4.76-2.24,1.81-5.68-.63-5.56,3.43a17.4,17.4,0,0,0,.76,5.07c.61,1.7,1.83,2.44.82,4.36-1.32,2.47-2.19,2.46-4.83,2.46-1.92,0-3.51-.11-4.92,1.34-2.47,2.55-1,4.86,1.19,6.83,2.5,2.24,1.17,3.22.85,6.12-.16,1.39.16,1.82-1.09,2.75-2.36,1.75-3.67,1.16-3,4.59.61,3.13-.33,2-3,3.22-2.41,1-4,3.63-6,5.24-1.25,1-3.16,1.85-3.28,3.67-.22,3.49,4.12,2.73,6.18,3.56,3.38,1.36,2.37,5.78-.26,7.44-2.79,1.75-6.85,2.4-7.08,6.4-.17,3.07,1.57,3.74,4,4.77,1.9.82,1.66,1.06,1.66,3.32,0,4.58,1.53,5.87,6,5.13,1.24-.21,3.12-.73,4.35-.36,1.72.52,1.14.94,1.19,2.38.12,3.7,4.42,2.66,6.24,1.08C434.24,278.39,436.87,276.28,439.72,276Z" style="fill:#FF513B"></path><path d="M439.72,276a6.22,6.22,0,0,1,3.32.6,33.82,33.82,0,0,1,5.41,3.84,11,11,0,0,0,6,2.59c2.22.08,4.61-1.3,5-3.48a3.13,3.13,0,0,1,.28-1.11,1.61,1.61,0,0,1,1.9-.49,10.09,10.09,0,0,1,1.82,1.05c2.24,1.32,5,1,7.63.65,2.14-.31,4.84-1.26,4.83-3.42,0-1.42-1.23-2.46-2.2-3.49s-1.77-2.67-.88-3.76a2.57,2.57,0,0,1,1.24-.76c2.68-.87,6,.29,8.22-1.39a4.72,4.72,0,0,0,1.19-5.67,7.21,7.21,0,0,0-4.83-3.68c-1.79-.45-4.08-.67-4.75-2.4-.59-1.51.59-3.15,1.92-4.09s2.94-1.58,3.87-2.92a4.65,4.65,0,0,0,.13-4.8,5.88,5.88,0,0,0-4-2.77,8.79,8.79,0,0,1-2.45-.53,1.65,1.65,0,0,1-.91-2.07c.25-.44.76-.67,1.05-1.08a2,2,0,0,0-.72-2.55,10.3,10.3,0,0,0-2.74-1.05c-1.94-.64-3.83-2.53-3.25-4.49s3.39-2.71,4.22-4.67c.73-1.74-.43-3.77-2-4.83s-3.45-1.5-5.16-2.3-3.35-2.23-3.49-4.12,1.3-3.55,2.48-5.08,2.18-3.67,1.15-5.31-3.19-1.66-5-2.23a8,8,0,0,1-4.88-4.4c-.47-1.09-.7-2.28-1.26-3.32-1.76-3.25-6.18-4.67-9.59-4.27-1.8.21-2.39.9-3.26,2.22a5.15,5.15,0,0,0-1.2,2.24c-.25,1.57.57,3.56-.91,4.76-2.24,1.81-5.68-.63-5.56,3.43a17.4,17.4,0,0,0,.76,5.07c.61,1.7,1.83,2.44.82,4.36-1.32,2.47-2.19,2.46-4.83,2.46-1.92,0-3.51-.11-4.92,1.34-2.47,2.55-1,4.86,1.19,6.83,2.5,2.24,1.17,3.22.85,6.12-.16,1.39.16,1.82-1.09,2.75-2.36,1.75-3.67,1.16-3,4.59.61,3.13-.33,2-3,3.22-2.41,1-4,3.63-6,5.24-1.25,1-3.16,1.85-3.28,3.67-.22,3.49,4.12,2.73,6.18,3.56,3.38,1.36,2.37,5.78-.26,7.44-2.79,1.75-6.85,2.4-7.08,6.4-.17,3.07,1.57,3.74,4,4.77,1.9.82,1.66,1.06,1.66,3.32,0,4.58,1.53,5.87,6,5.13,1.24-.21,3.12-.73,4.35-.36,1.72.52,1.14.94,1.19,2.38.12,3.7,4.42,2.66,6.24,1.08C434.24,278.39,436.87,276.28,439.72,276Z" style="opacity:0.15"></path><path d="M454.46,283a11,11,0,0,1-6-2.59A33.82,33.82,0,0,0,443,276.6a6.22,6.22,0,0,0-3.32-.6c-2.85.28-5.48,2.39-7.58,4.22-1.82,1.58-6.12,2.62-6.24-1.08,0-1.44.53-1.86-1.19-2.38-1.23-.37-3.11.15-4.35.36-4.51.74-6.05-.55-6-5.13,0-2.26.24-2.5-1.66-3.32-2.38-1-4.12-1.7-4-4.77.23-4,4.29-4.65,7.08-6.4,2.63-1.66,3.64-6.08.26-7.44-2.06-.83-6.4-.07-6.18-3.56.12-1.82,2-2.63,3.28-3.67,2-1.61,3.54-4.2,6-5.24,2.71-1.17,3.65-.09,3-3.22-.66-3.43.65-2.84,3-4.59,1.25-.93.93-1.36,1.09-2.75.32-2.9,1.65-3.88-.85-6.12-2.19-2-3.66-4.28-1.19-6.83,1.41-1.45,3-1.35,4.92-1.34,2.64,0,3.51,0,4.83-2.46,1-1.92-.21-2.66-.82-4.36a17.4,17.4,0,0,1-.76-5.07c-.12-4.06,3.32-1.62,5.56-3.43,1.48-1.2.66-3.19.91-4.76a4.46,4.46,0,0,1,.11-.46,11.47,11.47,0,0,1,1.28,3.83,5,5,0,0,1-2.05,4.9,8.7,8.7,0,0,0-1.52.87,3.09,3.09,0,0,0-.33,3.5c.5,1.14,1.35,2.11,1.8,3.28a5.53,5.53,0,0,1-2.18,6.49c-2.13,1.32-5.56,1.61-5.93,4.09-.52,3.55,6.35,5,5.57,8.49-.33,1.49-2,2.25-3.08,3.29a7.31,7.31,0,0,0-1.88,6.74,12.52,12.52,0,0,0,3.68,6.2c1.28,1.25,2.88,3,2,4.53s-3.28,1.24-4.56,2.45c-1.1,1-1,2.82-.48,4.24s1.32,2.78,1.37,4.29c.07,1.8-1,3.44-1.94,5s-1.94,3.22-1.76,5c.47,4.43,5.62,3.13,7.92,1.46a7.82,7.82,0,0,1,10.38,1.51c.89,1.16,1.42,2.54,2.3,3.7a3.93,3.93,0,0,0,3.72,1.78,3.28,3.28,0,0,0,2.29-2.73c.3-1.33-.05-3,1.51-3.58s3.32,0,4.78.75a12.56,12.56,0,0,0,2.12,1,11,11,0,0,0,2.61.39,4.24,4.24,0,0,0,1.58-.19,1.93,1.93,0,0,0,1.16-1,6.77,6.77,0,0,0,.16-2c.17-1.63,1.43-2,2.69-2.54A10.33,10.33,0,0,1,477,267a23.52,23.52,0,0,1,3.64.58,18.12,18.12,0,0,1-3.65.24h-.56l-.57,0h-.14c-.24,0-.47,0-.7.09l-.18,0a6,6,0,0,0-.7.18,3.66,3.66,0,0,0-.68.29,2.3,2.3,0,0,0-.56.47,2,2,0,0,0-.26,1.91,4.94,4.94,0,0,0,1.14,1.85c1,1,2.2,2.07,2.2,3.49a2.36,2.36,0,0,1-.68,1.69,3.45,3.45,0,0,1-.28.26,5.14,5.14,0,0,1-1,.65,10.14,10.14,0,0,1-2.86.82,21.73,21.73,0,0,1-3.94.31c-.33,0-.65,0-1-.07a6.93,6.93,0,0,1-2.72-.89c-.3-.18-.59-.39-.89-.58a4.28,4.28,0,0,0-.93-.47,1.91,1.91,0,0,0-.53-.1,1.66,1.66,0,0,0-1,.22,1.41,1.41,0,0,0-.36.37,1.12,1.12,0,0,0-.11.25,2.23,2.23,0,0,0-.12.57c0,.09,0,.19,0,.29C459.07,281.73,456.68,283.1,454.46,283Z" style="opacity:0.15"></path><path d="M432.69,238.35,445,262.73V251.51l1.25-47.8,1.82,47.8v7.55l13.52-23.63-13.52,29v75.17a.77.77,0,0,1-.45.63,2.44,2.44,0,0,1-2.17,0,.77.77,0,0,1-.45-.63V269Z" style="fill:#37474f"></path></g><g id="freepik--bush--inject-2"><path id="freepik--bush--inject-2" d="M449.4,344.38s-11.69-6.74-14.38-8.31a11.28,11.28,0,0,1-3.12-2.94,8.1,8.1,0,0,1-1.75-3.72,1.88,1.88,0,0,1,.15-1.42c.51-.76,1.74-.5,2.43.12s1.23,1.16,2,1.93a21.36,21.36,0,0,1-.28-5,2.27,2.27,0,0,1,.6-1.66,1.86,1.86,0,0,1,2,.05c1.89,1,2.69,3.25,3.34,5.29a17.12,17.12,0,0,1,.19-6.34c.5-2.27,3.1-3.16,4-1a12.65,12.65,0,0,1,.77,3.61,15,15,0,0,1-.33,4.78,15.09,15.09,0,0,1,3.84-5.31,2.31,2.31,0,0,1,2.21-.77c.91.35,1.06,1.56,1,2.53a13.67,13.67,0,0,1-2,5.78,12.22,12.22,0,0,1,4.86-1.89,1.47,1.47,0,0,1,1.53.5,2,2,0,0,1-.33,2,12.26,12.26,0,0,1-3.87,3.59,12.72,12.72,0,0,1,4.71-.5,1.67,1.67,0,0,1,1.26.53c.41.6-.07,1.41-.59,1.91a14.12,14.12,0,0,1-3.37,2,4.71,4.71,0,0,1,2.08.35,1.65,1.65,0,0,1,1,1.7,2.11,2.11,0,0,1-1.52,1.34C453,344.52,452.19,344.83,449.4,344.38Z" style="fill:#FF513B"></path><path id="freepik--bush--inject-2" d="M449.4,344.38s-11.69-6.74-14.38-8.31a11.28,11.28,0,0,1-3.12-2.94,8.1,8.1,0,0,1-1.75-3.72,1.88,1.88,0,0,1,.15-1.42c.51-.76,1.74-.5,2.43.12s1.23,1.16,2,1.93a21.36,21.36,0,0,1-.28-5,2.27,2.27,0,0,1,.6-1.66,1.86,1.86,0,0,1,2,.05c1.89,1,2.69,3.25,3.34,5.29a17.12,17.12,0,0,1,.19-6.34c.5-2.27,3.1-3.16,4-1a12.65,12.65,0,0,1,.77,3.61,15,15,0,0,1-.33,4.78,15.09,15.09,0,0,1,3.84-5.31,2.31,2.31,0,0,1,2.21-.77c.91.35,1.06,1.56,1,2.53a13.67,13.67,0,0,1-2,5.78,12.22,12.22,0,0,1,4.86-1.89,1.47,1.47,0,0,1,1.53.5,2,2,0,0,1-.33,2,12.26,12.26,0,0,1-3.87,3.59,12.72,12.72,0,0,1,4.71-.5,1.67,1.67,0,0,1,1.26.53c.41.6-.07,1.41-.59,1.91a14.12,14.12,0,0,1-3.37,2,4.71,4.71,0,0,1,2.08.35,1.65,1.65,0,0,1,1,1.7,2.11,2.11,0,0,1-1.52,1.34C453,344.52,452.19,344.83,449.4,344.38Z" style="opacity:0.25"></path></g></g></g><g id="freepik--House--inject-2"><g id="freepik--house--inject-2"><g id="freepik--Walls--inject-2"><polygon points="251.14 239.81 251.14 64.08 421.59 162.48 421.59 338.21 251.14 239.81" style="fill:#FF513B"></polygon><g style="opacity:0.7000000000000001"><polygon points="251.14 239.81 251.14 64.08 421.59 162.48 421.59 338.21 251.14 239.81" style="fill:#fff"></polygon></g><polygon points="251.14 239.81 251.14 64.08 80.7 162.48 80.7 338.21 251.14 239.81" style="fill:#FF513B"></polygon><g style="opacity:0.7000000000000001"><polygon points="251.14 239.81 251.14 64.08 80.7 162.48 80.7 338.21 251.14 239.81" style="fill:#fff"></polygon></g><g style="opacity:0.1"><polygon points="251.14 239.81 251.14 64.08 80.7 162.48 80.7 338.21 251.14 239.81"></polygon></g><polygon points="251.16 436.63 421.59 338.21 251.14 239.81 80.7 338.21 251.16 436.63" style="fill:#FF513B"></polygon><g style="opacity:0.7000000000000001"><polygon points="251.16 436.63 421.59 338.21 251.14 239.81 80.7 338.21 251.16 436.63" style="fill:#fff"></polygon></g><polygon points="251.16 443.65 251.16 436.63 421.59 338.21 421.59 162.48 427.68 166 426.94 342.15 251.16 443.65" style="fill:#455a64"></polygon><polygon points="251.16 443.65 251.16 436.63 80.73 338.21 80.73 162.48 74.64 158.97 75.38 342.15 251.16 443.65" style="fill:#37474f"></polygon><polygon points="421.59 338.21 421.59 328.46 251.14 230.05 251.14 239.81 421.59 338.21" style="fill:#fafafa"></polygon><polygon points="80.7 338.21 80.69 328.46 251.15 230.05 251.14 239.81 80.7 338.21" style="fill:#ebebeb"></polygon></g><g id="freepik--Roof--inject-2"><polygon points="147.66 46.5 56.35 162.48 117.24 197.64 208.55 81.66 147.66 46.5" style="fill:#455a64"></polygon><polygon points="56.35 162.48 56.35 169.51 117.24 204.67 117.24 197.64 56.35 162.48" style="fill:#263238"></polygon><polygon points="208.55 81.66 208.55 88.69 117.24 204.67 117.24 197.64 208.55 81.66" style="fill:#37474f"></polygon><polygon points="261.03 65.75 147.66 46.5 330.28 151.94 443.65 171.19 261.03 65.75" style="fill:#37474f"></polygon><polygon points="208.55 88.69 330.28 158.97 330.28 151.94 208.55 81.66 208.55 88.69" style="fill:#263238"></polygon><polygon points="330.28 158.97 443.65 178.22 443.65 171.19 330.28 151.94 330.28 158.97" style="fill:#455a64"></polygon></g></g></g><g id="freepik--Shadow--inject-2"><path id="freepik--shadow--inject-2" d="M236.71,376.33a24.4,24.4,0,0,1,3,4.92c1.39,3.41,1.14,7.23,1.64,10.87a25.79,25.79,0,0,0,13,18.89c7.82,4.22,19.27,3.57,27.33.48,2.26-.87,4.58-2.1,5.7-4.25a8.1,8.1,0,0,0-.27-7.16,28.46,28.46,0,0,0-4.4-6c-5.12-5.94-10.18-12.33-13.38-19.44s-5.77-14.86-5.79-22.86a6.25,6.25,0,0,1,.76-3.55c1.31-1.95,4.1-2,6.44-1.86l47.62,3c7.53.47,15.12,1,22.39,3,6.68,1.84,13,5,19.85,6.08a35.47,35.47,0,0,0,24.92-5.24c1.68-1.1,3.43-2.68,3.29-4.68-.17-2.45-2.95-3.71-5.29-4.44-15.22-4.79-29.75-12.31-44.38-18.78-9.95-4.39-19.92-8.79-30.18-12.4-21.49-7.58-41.76-14.48-63.67-18.68-25.12-4.82-40.62-9.38-78.2,13.86-6.23,3.85-16.22,10.54-17.26,17.8-.84,5.85.67,13.68,25.78,21.22A224.45,224.45,0,0,0,198.91,353c7.91,1.5,14.65,3.26,21.74,7.09S232,369.88,236.71,376.33Z" style="opacity:0.15"></path></g><g id="freepik--Character--inject-2"><g id="freepik--character--inject-2"><g id="freepik--Top--inject-2"><path d="M242.38,196.65c11.84,1.3,14.72,2.59,25.64,15s25.73,27.36,25.73,27.36,17.56-7.78,23-10.58,8.2-4.32,9.57-6.67,1.4-10.36,2.56-16.42,2.18-14.16,2.87-17.83,1.16-7,4.4-6.49c2.55.44,2,4.33,1.76,7.11-.2,2.54-.62,6.18-.68,8.65,0,1.54,0,2.26.46,2.43s.95-.82,1.29-2.65c.54-2.91.86-5.79,1.23-8.12,1-6.7,1.31-11.41,4.59-11.24s2.25,4.52,1.95,9.38-.84,7.42-1,9.92-.2,3.85.41,4,1-.55,1.8-4.75c.87-4.69,2.35-13.93,5.63-13s1.66,7,1.14,11.19c-.41,3.41-2.62,15.56-2.71,17.19s2,1.71,2.86.51,2.92-6,5.26-7.82,5.06-1.44,4.07,1.47-3,8.79-5,14.6-7.14,12.15-13.35,14.7-28.56,21-40.47,28.22c-9.06,5.47-16.93,5.87-25.21-1.23-12.61-10.8-36.31-31-36.31-31Z" style="fill:#ffa8a7"></path><path d="M242.38,196c9.28,1.68,10.56,1.22,16.25,5.54s25.95,28.08,25.95,28.08a35.54,35.54,0,0,1-9.7,14.05c-6.88,5.78-10.63,5.92-10.63,5.92l-23.41-19.88C234.58,218.26,232.77,196,242.38,196Z" style="fill:#FF513B"></path><path d="M242.38,196c9.28,1.68,10.56,1.22,16.25,5.54s25.95,28.08,25.95,28.08a35.54,35.54,0,0,1-9.7,14.05c-6.88,5.78-10.63,5.92-10.63,5.92l-23.41-19.88C234.58,218.26,232.77,196,242.38,196Z" style="opacity:0.15"></path><path d="M203.45,192.79c-6.45.7-20.77,3.25-26.06,4.33,0,0-18.2,35.69-19.66,66.58-.78,16.66.93,45.14,7.77,55,13.38-18.61,52.23-45,89.09-42.22,0,0-1.73-9.51-6.37-14.41,0,0,2-5.35,3.47-15.56s5.85-38.73-9.31-50.46l-19.23-3Z" style="fill:#FF513B"></path><path d="M198.56,130.63s-5.62-1.34-9.56,4.56c-3.45,5.14-.78,15.33,1.74,26a80.9,80.9,0,0,0,6.92,19.43,8.11,8.11,0,0,0,4.68,3.82l-.19-12.64-.37-8.81s5.29-4.1,6.4-14c.92-8.13-.81-11.48-.81-11.48Z" style="fill:#37474f"></path><path d="M206.74,145a23.6,23.6,0,1,0,23.74-23.46A23.61,23.61,0,0,0,206.74,145Z" style="fill:#37474f"></path><path d="M227.23,190.17l-1.3,5.53c-1.1,9.51-23.5,10.76-30,0l2.94-20.43s-2.75,2.27-7.63-.07c-4.33-2.07-9.24-9.55-6.26-15.76s9.44-4.18,11.54-2.69c3.36,2.39,3,5.89,5.59,4.85,1.43-.58,2.54,0,2.53-3.23,0-4.19,3.27-9.29,2.72-20.84,13.72-8.52,35-7.54,41.48-2.45,3.71,19.63,4.24,34.79,1.36,44.86-1.8,6.26-5.49,10.83-11.29,11.68-3.48.52-11.69-1.45-11.69-1.45" style="fill:#ffa8a7"></path><circle cx="223.35" cy="159.85" r="3.15" style="fill:#f28f8f"></circle><path d="M241.59,157.92a3.16,3.16,0,1,0,3.07-3.23A3.15,3.15,0,0,0,241.59,157.92Z" style="fill:#f28f8f"></path><circle cx="223.58" cy="157.79" r="2.6" style="fill:#263238"></circle><path d="M240.81,156.15a2.6,2.6,0,1,0,2.53-2.66A2.59,2.59,0,0,0,240.81,156.15Z" style="fill:#263238"></path><path d="M252,122.16a.68.68,0,0,0-.4-.07,1.45,1.45,0,0,0-.71.44A7.25,7.25,0,0,1,247,124.3c.64-2.78.91-5.92-.71-8.27a2.23,2.23,0,0,0-1.6-1.1,2.9,2.9,0,0,0-1.75.77,11.87,11.87,0,0,1-6.78,2.39,7.92,7.92,0,0,0,1.28-2.36,2.87,2.87,0,0,0,0-1.92A31.35,31.35,0,0,1,227.14,116c-3.45.29-7-.55-10.47-.48-7.14.17-15.79,3-19.08,9.91-1.51,3.17-1.79,6.51,1.1,8.74a20.22,20.22,0,0,0,8.68,3.33c14.21,2.61,32.22,9.6,42.87-3.58a12.46,12.46,0,0,0,2.46-10.67A1.78,1.78,0,0,0,252,122.16Z" style="fill:#37474f"></path><path d="M218.87,151.29l4.41-4.56a3.32,3.32,0,0,1,.06,4.6A3.1,3.1,0,0,1,218.87,151.29Z" style="fill:#263238"></path><path d="M242,145.1l4.41,4.62a3.06,3.06,0,0,1-4.45,0A3.35,3.35,0,0,1,242,145.1Z" style="fill:#263238"></path><polygon points="232.21 151.58 233.49 167.25 242.02 164.17 232.21 151.58" style="fill:#f28f8f"></polygon><path d="M204.69,157.66c1.09,12.36,5.11,15.11,9.42,16.29,6.86,1.88,11.51-2.5,19.44-4.12,5.28-1.08,8.92.67,12.68,1.67.73.19,1.57.37,2.36.52a2.75,2.75,0,0,0,3.24-2.56,97.82,97.82,0,0,0-.16-14.19l-.34-3.71s2.62,16.92,2.22,22.8-1,10.6-5.59,14.22-14.34,5.47-26.1,3.38c-11.6-2.07-16.5-5.7-17.81-9.85-3.23-10.2-4.5-20.21-5.17-22.82C202.05,162.83,204.53,160.51,204.69,157.66Z" style="fill:#455a64"></path><path d="M231.27,178c-.27,1.18-1.23-.29-2.76-.64s-3,.56-2.76-.63,1.73-1.86,3.26-1.51S231.55,176.8,231.27,178Z" style="fill:#263238"></path><path d="M108.25,294.15c3-.6,27.81-23.78,27.81-23.78S149.23,228.2,152,218.88c4.08-13.92,10.42-18,24.71-20.93,3.9,9.79,4.32,25.13.71,40.28-6.59,18.76-14.37,39-16.16,43.12s-4.91,7.1-9.85,10.49c-13.71,9.41-29.28,19.92-34.35,19.92" style="fill:#ffa8a7"></path><path d="M117.82,311.67C105,313.85,99,308.37,94.87,297.55s-6.78-25.48-7.71-29.32-.08-5.4,1.42-6c.56-.2,3.15-.08,4.28,4,2,7.43,3.2,12,4.63,11.69s0-5.89-1.64-13.49c-1.13-5.12-1.86-9.48,1-10.07,3.05-.63,4.44,2.27,6,9.19s2.45,12.09,4.34,11.85c1.51-.2-.31-7.5-1-12.33s-1.23-7.65,1.75-8.2c2.7-.5,4.22,3.17,5.07,7.87.79,4.35,3.59,17.49,4.42,19,1.39,2.58,2.85-4.77,4.36-8,2.47-5.26,7.07-4,6.23.46a83.78,83.78,0,0,0-1.4,16.66C126.84,296.26,127.37,309.76,117.82,311.67Z" style="fill:#ffa8a7"></path><path d="M112.48,288.84s-7,8.91-3.28,17.3a11.54,11.54,0,0,1-2.57-11.49A8.83,8.83,0,0,1,112.48,288.84Z" style="fill:#f28f8f"></path><path d="M126.86,283.14c.26,2.73.35,5.41.45,8.1a41.11,41.11,0,0,1-.1,8.22,19.34,19.34,0,0,1-2.63,7.92,9.83,9.83,0,0,1-3,3,9.11,9.11,0,0,1-3.92,1.3,10.25,10.25,0,0,0,5.83-4.93,22.65,22.65,0,0,0,2.11-7.48,72.47,72.47,0,0,0,.45-8C126.15,288.55,126.49,285.82,126.86,283.14Z" style="fill:#f28f8f"></path><path d="M177.39,197.12c-11,1.77-14.5,2.78-21,11.11s-15.6,45-15.6,45A31,31,0,0,0,153,260.72a58.92,58.92,0,0,0,15.78,2.19l9.42-22.36a56,56,0,0,0,3.46-16.87C182.06,215.73,181.59,204.87,177.39,197.12Z" style="fill:#FF513B"></path><path d="M177.39,197.12c-11,1.77-14.5,2.78-21,11.11s-15.6,45-15.6,45A31,31,0,0,0,153,260.72a58.92,58.92,0,0,0,15.78,2.19l9.42-22.36a56,56,0,0,0,3.46-16.87C182.06,215.73,181.59,204.87,177.39,197.12Z" style="opacity:0.15"></path></g><g id="freepik--Bottom--inject-2"><path d="M318.36,318.66c5.18,10.18,17.76,8.55,27.27,1.55L322.4,253.14l-29.88,20.27Z" style="fill:#ffa8a7"></path><path d="M386.5,343.84a7.35,7.35,0,0,1-.1,5.41c-.7,1.6-8.78,6.56-19.93,6.22a46.44,46.44,0,0,1-23.32-7.19c-4.34-2.66-12.08-3.49-17.61-3.6s-12.86-2.59-14.16-5.13-.08-7-.08-7Z" style="fill:#263238"></path><path d="M359.17,323.9a148.05,148.05,0,0,0,15.42,7.48,31.09,31.09,0,0,1,7.29,3.3c4.48,2.78,6.66,9.6,1.79,12.7-4.2,2.68-15.39,5.83-27.36,2.91-6.52-1.59-17.24-8.69-25.73-9-5.41-.22-15.65-1.36-19.27-5.32-1.31-5.91.15-7.58,1.38-12.6,0-1.32.46-2.81.58-4.15a19.12,19.12,0,0,0-.07-4c-.16-1.34-.43-1.87,0-2.61a1.61,1.61,0,0,1,1.25-.77l1,1.76a4.5,4.5,0,0,0,3.61,2.4c4.34.53,5.33,4.32,6.68,7.24a3.26,3.26,0,0,0,.81,1.26,1,1,0,0,0,1.35,0,1.16,1.16,0,0,0,.21-.57,29.19,29.19,0,0,0,.14-4.77,7.22,7.22,0,0,1,1.31-4.5,8.87,8.87,0,0,1,4.09-2.35A29.38,29.38,0,0,1,340,310.5c1.57-.19,3.74-.91,5.23-.12.2.11,1.51,3.58,3.36,5.56C351.54,319.14,356.52,322.26,359.17,323.9Z" style="fill:#37474f"></path><path d="M313.27,319.18c-.16,1.22-.59,2.82-.88,4-1.22,5-2.39,6.82-1.08,12.73,2.78,3,9.47,4.41,14.87,5C327.62,330.68,320.9,322.8,313.27,319.18Z" style="fill:#455a64"></path><path d="M383.09,334.91c-2.37-1.47-7.64-3.29-10.3-4.25-14,3.72-17.83,10.76-17.74,19.27,12.11,3.95,24.82.26,28.75-2.24C388.67,344.58,387.56,337.69,383.09,334.91Z" style="fill:#455a64"></path><path d="M193.64,315.62c11,19.69,46.16,14.07,58,4.69,28.24-22.34,66-66.65,63.29-88-1.43-10.38-9-15.92-23.38-13.31q-11.47,2.09-28.87,11.54C234.58,245.8,199.71,301.39,193.64,315.62Z" style="fill:#455a64"></path><path d="M193.64,315.62c11,19.69,46.16,14.07,58,4.69,28.24-22.34,66.6-66.66,63.84-88-1.43-10.37-10-17.77-24.37-15.15-7.65,1.39-16.8,5-28.43,13.4C236.74,249.24,199.71,301.39,193.64,315.62Z" style="fill:#455a64"></path><path d="M251.66,320.31c18-14.28,40-37.54,52.79-58.05l-22-19.34c-3.83,14.18,2.91,28.14-10.65,44.56-10.23,12.39-20.9,19.35-36.79,25.79-10.15,4.12-29.83,6.16-41.34,2.35C204.62,335.31,239.8,329.69,251.66,320.31Z" style="fill:#37474f"></path><path d="M304.21,219c5.77,1.36,9.56,3.86,16,22.43,9.19,26.35,15.67,50.79,15.67,50.79s-14.46,7.67-27.33,9.38c0,0-10.55-14.37-15.46-23.27-7.49-13.58-13.54-19.87-9.41-42.4C286.82,219,299.44,217.83,304.21,219Z" style="fill:#455a64"></path><path d="M244.72,362.38c6.05,2.23,15.84.7,22.17-3.9l-1.5-63.81-30.7,7Z" style="fill:#ffa8a7"></path><path d="M240.24,366.51a10.59,10.59,0,0,0,.19,4.74c1.13,2.4,4,5.08,4.21,10.29.25,6.25.3,8.58.77,13s3.22,9.59,8.66,13.19c5.68,3.76,12.49,5.09,23.31,2.26a14,14,0,0,0,8.92-7,14.51,14.51,0,0,0,.14-3.76Z" style="fill:#263238"></path><path d="M241.9,349a2,2,0,0,0-1,1.3,5,5,0,0,0-.07,1.69c.13,1.47.44,2.93.47,4.41a44.79,44.79,0,0,1-.84,6.6,19.46,19.46,0,0,0-.36,4.36,9.22,9.22,0,0,0,1.82,3.2,16.25,16.25,0,0,1,4.61,10.17c.58,4.59.24,8.78,1,12.9,1,5.33,4.37,9.25,10,12.83,3.83,2.46,12,2.32,16.32,1.66,6.47-1,12.33-5.74,12.6-10.43.2-3.44-1.35-5.3-2.6-7-2.93-3.9-6.65-7.82-7.63-9.65-5.09-9.47-6.49-20.1-8.54-30.5a1.71,1.71,0,0,0-.41-1,1.61,1.61,0,0,0-.83-.33c-6.37-1.22-13.92,1-20,3.11-.52.18-1.11.44-1.24,1a1.78,1.78,0,0,0,0,.69,19.29,19.29,0,0,1,.18,3.72c0,.3-.11.69-.42.73s-1.13-2.46-1.22-2.77l-1.24-6.9A1.47,1.47,0,0,0,241.9,349Z" style="fill:#37474f"></path><path d="M286.44,395.12c-.27-2.18-3.8-6.48-5.22-7.66-10.14-4.71-26.56,1.59-31.74,11.35,1,2.36,5.09,7,9,8.55,4.51,1.84,11.34,2,16.06.89s8-2.83,9.82-5.16C286.48,400.32,286.87,398.62,286.44,395.12Z" style="fill:#455a64"></path><path d="M165.6,319.93c10,20.22,35.09,23.69,50.93,16.92,28.07-12,47.54-73.46,46.17-89.24-1.16-13.27-10.2-22.26-28.44-12-3.71,2.08-10.94,7.7-15.73,12C204,260.72,193.07,277,181.38,294c-4.1,6-13.76,12.87-20.22,13.29A61.78,61.78,0,0,0,165.6,319.93Z" style="fill:#455a64"></path><path d="M230.85,254.82c-10.62,17.31-7.11,37.35-2,56.11-3,10.18-10.25,18.22-24.06,21.49-16.7,4-30-.78-35.51-6.56,11.28,15.05,33.19,17,47.23,11,18.17-7.77,35.82-38.15,45.64-62.89Z" style="fill:#37474f"></path><path d="M248.49,231.17c15.14.63,21.41,13.85,19.89,41.3-1.62,29.08-1.88,56.93-1.88,56.93s-14.27,4.18-27.18,2.86c0,0-3.79-15-8.76-31.44-5.36-17.72-4.39-31.78.29-46S248.49,231.17,248.49,231.17Z" style="fill:#455a64"></path><path d="M248.49,231.17A18.54,18.54,0,0,1,258.56,234a19.5,19.5,0,0,1,6.7,8.15,37.12,37.12,0,0,1,2.91,10.19,79.32,79.32,0,0,1,.91,10.54c0,1.76,0,3.52-.06,5.28l-.23,5.27c-.17,3.5-.3,7-.51,10.51l-.58,10.5c-.22,3.5-.42,7-.68,10.5,0-3.51.13-7,.19-10.52l.3-10.52c.09-3.51.25-7,.37-10.52l.19-5.24c0-1.75,0-3.5,0-5.24a78.81,78.81,0,0,0-.81-10.42,38.74,38.74,0,0,0-2.71-10,19,19,0,0,0-6.27-8.07A18.82,18.82,0,0,0,248.49,231.17Z" style="fill:#37474f"></path></g></g></g><g id="freepik--Lines--inject-2"><g id="freepik--lines--inject-2"><path d="M301.19,359.34a.52.52,0,0,1-.25-.07.48.48,0,0,1-.25-.43V299.26a.5.5,0,0,1,.25-.43l66.61-38.46a.5.5,0,0,1,.5,0,.52.52,0,0,1,.25.44v59.57a.49.49,0,0,1-.25.43l-66.6,38.46A.59.59,0,0,1,301.19,359.34Zm.49-59.79V358l65.6-37.88V261.67Z" style="fill:#fafafa"></path><path d="M364.62,266.3v52.25l-60.26,34.79V301.09l60.26-34.79m-60.26,34.21h0m61.26-35.94-62.26,35.94v54.56l62.26-35.94V264.57Z" style="fill:#fafafa"></path><path d="M336.84,335.47a.51.51,0,0,1-.5-.5V282a.51.51,0,0,1,.5-.5.5.5,0,0,1,.5.5V335A.5.5,0,0,1,336.84,335.47Z" style="fill:#fafafa"></path><path d="M333.59,337.27a.5.5,0,0,1-.5-.5V283.84a.5.5,0,0,1,1,0v52.93A.5.5,0,0,1,333.59,337.27Z" style="fill:#fafafa"></path><path d="M160.63,326.52a.43.43,0,0,1-.25-.07L93.77,288a.52.52,0,0,1-.25-.44V228a.52.52,0,0,1,.25-.44.55.55,0,0,1,.5,0L160.88,266a.5.5,0,0,1,.25.43V326a.5.5,0,0,1-.25.43A.47.47,0,0,1,160.63,326.52ZM94.52,287.27l65.61,37.88V266.73L94.52,228.85Z" style="fill:#fafafa"></path><path d="M97.19,233.48l60.26,34.79v52.25L97.19,285.73V233.48m-1-1.73v54.56l62.26,35.94V267.7L96.19,231.75Z" style="fill:#fafafa"></path><path d="M125,302.65a.5.5,0,0,1-.5-.5V249.22a.5.5,0,0,1,1,0v52.93A.5.5,0,0,1,125,302.65Z" style="fill:#fafafa"></path><path d="M128.22,304.45a.51.51,0,0,1-.5-.5V251a.51.51,0,0,1,.5-.5.5.5,0,0,1,.5.5V304A.5.5,0,0,1,128.22,304.45Z" style="fill:#fafafa"></path><path d="M301.19,270.22a.43.43,0,0,1-.25-.07.48.48,0,0,1-.25-.43V210.14a.5.5,0,0,1,.25-.43l66.61-38.46a.55.55,0,0,1,.5,0,.52.52,0,0,1,.25.44v59.57a.52.52,0,0,1-.25.44l-66.6,38.45A.47.47,0,0,1,301.19,270.22Zm.49-59.79v58.42L367.29,231V172.55Z" style="fill:#fafafa"></path><path d="M364.62,177.18v52.25l-60.26,34.79V212l60.26-34.79M304.36,211.4h0m61.26-36-62.26,36V266L365.62,230V175.45Z" style="fill:#fafafa"></path><path d="M336.84,246.49a.5.5,0,0,1-.5-.5V193a.5.5,0,0,1,.5-.5.5.5,0,0,1,.5.5v53A.5.5,0,0,1,336.84,246.49Z" style="fill:#fafafa"></path><path d="M333.59,248.42a.5.5,0,0,1-.5-.5V194.78a.5.5,0,0,1,1,0v53.14A.5.5,0,0,1,333.59,248.42Z" style="fill:#fafafa"></path><path d="M233.74,426.42a.51.51,0,0,1-.5-.5V299.56l-53.85-31.09V394.25a.5.5,0,0,1-.5.5.5.5,0,0,1-.5-.5V267.61a.52.52,0,0,1,.25-.44.55.55,0,0,1,.5,0L234,298.84a.5.5,0,0,1,.25.43V425.92A.5.5,0,0,1,233.74,426.42Z" style="fill:#fafafa"></path><path d="M237.81,428.76a.5.5,0,0,1-.5-.5v-131l-62-35.78V391.9a.5.5,0,0,1-.5.5.5.5,0,0,1-.5-.5V260.57a.5.5,0,0,1,.25-.43.5.5,0,0,1,.5,0l63,36.36a.48.48,0,0,1,.25.43V428.26A.5.5,0,0,1,237.81,428.76Z" style="fill:#fafafa"></path><path d="M229.68,377.24a.54.54,0,0,1-.25-.06l-8.12-4.69a.5.5,0,0,1-.25-.44v-6.26a.5.5,0,0,1,.5-.5.5.5,0,0,1,.5.5v6l7.12,4.11V358.19l-7.12-4.11v2.73a.5.5,0,0,1-.5.5.5.5,0,0,1-.5-.5v-3.6a.5.5,0,0,1,.75-.43l8.12,4.69a.5.5,0,0,1,.25.44v18.83a.5.5,0,0,1-.25.44A.54.54,0,0,1,229.68,377.24Z" style="fill:#fafafa"></path><path d="M225.29,368.22a4.15,4.15,0,0,1-2.07-.63,9.41,9.41,0,0,1-4.3-7.47,3,3,0,0,1,4.81-2.78h0a9.41,9.41,0,0,1,4.31,7.48,3.33,3.33,0,0,1-1.45,3.06A2.52,2.52,0,0,1,225.29,368.22Zm-3.62-10.5a1.58,1.58,0,0,0-.81.21,2.38,2.38,0,0,0-.94,2.19,8.48,8.48,0,0,0,3.8,6.61,2,2,0,0,0,3.32-1.91,8.44,8.44,0,0,0-3.81-6.61A3.23,3.23,0,0,0,221.67,357.72Z" style="fill:#fafafa"></path><path d="M203.55,338.63a.52.52,0,0,1-.25-.07l-18.55-10.71a.48.48,0,0,1-.25-.43v-51.6a.48.48,0,0,1,.25-.43.5.5,0,0,1,.5,0L203.8,286.1a.5.5,0,0,1,.25.43v51.6a.5.5,0,0,1-.25.43A.59.59,0,0,1,203.55,338.63Zm-18.05-11.5,17.55,10.13V286.82L185.5,276.69Z" style="fill:#fafafa"></path><path d="M227.66,352.55a.45.45,0,0,1-.25-.07l-18.29-10.56a.5.5,0,0,1-.25-.43v-51.6a.52.52,0,0,1,.25-.43.5.5,0,0,1,.5,0L227.91,300a.48.48,0,0,1,.25.43v51.6a.48.48,0,0,1-.25.43A.45.45,0,0,1,227.66,352.55ZM209.87,341.2l17.29,10V300.74l-17.29-10Z" style="fill:#fafafa"></path><path d="M251.16,437.13a.5.5,0,0,1-.5-.5l0-177.22a.5.5,0,0,1,.5-.5.5.5,0,0,1,.5.5l0,177.22A.5.5,0,0,1,251.16,437.13Z" style="fill:#fafafa"></path><path d="M239,275.45a.47.47,0,0,1-.25-.07L117,205.1a.49.49,0,0,1-.18-.68.51.51,0,0,1,.68-.19L238.85,274.3l91-115.64a.5.5,0,0,1,.78.62l-91.31,116A.47.47,0,0,1,239,275.45Z" style="fill:#fafafa"></path></g></g><g id="freepik--speech-bubble--inject-2"><g id="freepik--sad-face--inject-2"><path d="M355,89.77,364,94.93l-3.55,8a.71.71,0,0,1-.34.38L357,105a.81.81,0,0,1-1.19-.48l-3.85-13Z" style="fill:#FF513B"></path><path d="M355,89.77,364,94.93l-3.55,8a.71.71,0,0,1-.34.38L357,105a.81.81,0,0,1-1.19-.48l-3.85-13Z" style="opacity:0.2"></path><path d="M360.88,96.7l-3.55,8a.81.81,0,0,1-1.52-.1l-3.85-13Z" style="fill:#FF513B"></path><path d="M387.78,75.05c0-15.06-10.58-33.37-23.62-40.9-6-3.46-11.47-4.09-15.63-2.26h0l-10.07,5.83L343,46.38c0,.61-.06,1.24-.06,1.89,0,14.46,9.75,31.91,22.07,39.95l4.48,8.52,10-5.73h0C384.87,87.53,387.78,83.36,387.78,75.05Z" style="fill:#FF513B"></path><path d="M387.78,75.05c0-15.06-10.58-33.37-23.62-40.9-6-3.46-11.47-4.09-15.63-2.26h0l-10.07,5.83L343,46.38c0,.61-.06,1.24-.06,1.89,0,14.46,9.75,31.91,22.07,39.95l4.48,8.52,10-5.73h0C384.87,87.53,387.78,83.36,387.78,75.05Z" style="opacity:0.15"></path><path d="M330.34,53.55c0,15.09,10.59,33.45,23.66,41S377.67,96,377.67,80.88s-10.6-33.44-23.67-41S330.34,38.46,330.34,53.55Z" style="fill:#FF513B"></path><path d="M342.22,62.52c0,1.21-.74,1.76-1.65,1.24a3.94,3.94,0,0,1-1.64-3.14,4.26,4.26,0,0,1,1.64-3.32S342.22,60.35,342.22,62.52Z" style="fill:#fafafa;opacity:0.4"></path><path d="M345.36,71.49a5.56,5.56,0,0,1,1.38-2.29,5.76,5.76,0,0,1,6.62-1.13,13.74,13.74,0,0,1,7.28,7.55,11.42,11.42,0,0,1,1,4.85c0,1.78-1.27,2.44-2.27,1.16-1.64-2.12-4-5.11-6.78-6.73a8.23,8.23,0,0,0-5.14-1.16C345.89,73.8,344.91,72.91,345.36,71.49Z" style="fill:#37474f"></path><path d="M361.35,64.91a5.68,5.68,0,0,0,2.38,4.53c1.31.76,2.37,0,2.37-1.79a5.69,5.69,0,0,0-2.37-4.54C362.42,62.35,361.35,63.16,361.35,64.91Z" style="fill:#37474f"></path><path d="M341,53.18a5.7,5.7,0,0,0,2.38,4.54c1.31.75,2.37,0,2.37-1.8a5.66,5.66,0,0,0-2.37-4.53C342.11,50.63,341,51.43,341,53.18Z" style="fill:#37474f"></path></g></g></svg>
