<svg xmlns="http://www.w3.org/2000/svg" viewBox="0 0 750 500"><g id="freepik--background-simple--inject-10"><path d="M624.53,129S521.74,23.75,388.17,15.62,176.71,93.78,139.8,145.24,10.84,282.44,21.67,361,139,499,291.51,472.86s196.74-36.1,266.23-16.24,159.74-9.93,161.55-122.74S624.53,129,624.53,129Z" style="fill:#FF513B"></path><path d="M624.53,129S521.74,23.75,388.17,15.62,176.71,93.78,139.8,145.24,10.84,282.44,21.67,361,139,499,291.51,472.86s196.74-36.1,266.23-16.24,159.74-9.93,161.55-122.74S624.53,129,624.53,129Z" style="fill:#fff;opacity:0.7000000000000001"></path></g><g id="freepik--Floor--inject-10"><line x1="25.61" y1="385.85" x2="708.36" y2="385.85" style="fill:none;stroke:#263238;stroke-linecap:round;stroke-linejoin:round"></line><polyline points="719.22 388.87 503.88 388.26 415.73 471.86" style="fill:none;stroke:#263238;stroke-linecap:round;stroke-linejoin:round"></polyline><polyline points="8.24 388.42 487.72 388.42 466.62 402.94 103.82 402.94" style="fill:none;stroke:#263238;stroke-linecap:round;stroke-linejoin:round"></polyline><polyline points="42.26 433.4 429.99 433.4 463.56 407.5 66.07 407.5" style="fill:none;stroke:#263238;stroke-linecap:round;stroke-linejoin:round"></polyline><polyline points="385.81 470.45 424.75 438.43 34.55 438.43" style="fill:none;stroke:#263238;stroke-linecap:round;stroke-linejoin:round"></polyline></g><g id="freepik--character-3--inject-10"><path d="M392.48,218.82s-15.4-.37-16.52.94-13.71,32.48-15,40.92-1.69,15.4-1.5,16.71,3.56,5.26,4.88,5.07,7.13-3.38,8.07-4.13-.38-3.57-.38-3.57,1.32-.56,1.32-2.81-4.88-9.76-4.88-9.76l15.95-28.73h7.7Z" style="fill:#c9c9c9;stroke:#263238;stroke-linecap:round;stroke-linejoin:round"></path><path d="M372,274.76s-5.81,2.44-6.75,1.88-.94-2.63-.38-3,5.45-2.63,5.45-2.63" style="fill:#c9c9c9;stroke:#263238;stroke-linecap:round;stroke-linejoin:round"></path><path d="M366.57,268.76s1.88,2.06.75,3.56" style="fill:#c9c9c9;stroke:#263238;stroke-linecap:round;stroke-linejoin:round"></path><path d="M364.88,273.64l-3.94,2.63s.19,1.87,1.13,2.44" style="fill:#c9c9c9;stroke:#263238;stroke-linecap:round;stroke-linejoin:round"></path><path d="M434.34,213.19s-42.61,2.25-43.55,4.32-2.26,9.76-.75,15.58a4.7,4.7,0,0,0,2.62,3.38l22-2.82s8.45-7.13,12.39-10.89A50.69,50.69,0,0,0,434.34,213.19Z" style="fill:#FF513B;stroke:#263238;stroke-linecap:round;stroke-linejoin:round"></path><path d="M487.27,183.15c0,3.94-6.74,3.31-8.63,6.57-4.3,7.46-7.2,16.9-17.08,16.9-14.2,0-25.72-10.51-25.72-23.47s11.52-23.46,25.72-23.46S487.27,170.19,487.27,183.15Z" style="fill:#263238;stroke:#263238;stroke-linecap:round;stroke-linejoin:round"></path><path d="M392.48,279.94s-5.5,7.69-6.59,12.63-15.81,52.3-15.81,52.3l-62.19,29.52s-11-.28-11.8,1.65-2.2,19.49-1.65,21.69S295.81,404,298,404s4.39-8.51,4.39-8.51l10.71-14.28s67.83-17,69.21-17.84,36-46.4,36-46.4l9.34,1.92,40.09,20.87s45.15,69.32,46.52,69.6,14.83-14.83,16.75-17.85,3.3-6.32.55-4.94-18.39,5.76-18.39,5.76-27-67.67-27.86-69-45-32.68-45-32.68l-2.2-7.41Z" style="fill:#263238;stroke:#263238;stroke-linecap:round;stroke-linejoin:round"></path><path d="M441.47,209.43s-17.08,5.82-23.09,14.08S391.54,280,391.16,282.65s4.7,7.69,17.27,8.45,25.35-1.13,28.16-3.57,4.7-8.45,4.7-8.45,12.57-37.73,12.76-42.61-3.38-12.2-3.38-12.2Z" style="fill:#FF513B;stroke:#263238;stroke-linecap:round;stroke-linejoin:round"></path><path d="M416.12,259.75c-3.84,1.58-7.17,2.91-9.05,3.57" style="fill:none;stroke:#263238;stroke-linecap:round;stroke-linejoin:round"></path><path d="M440.27,249.49s-11,4.76-20.6,8.79" style="fill:none;stroke:#263238;stroke-linecap:round;stroke-linejoin:round"></path><line x1="443.38" y1="253.98" x2="431.28" y2="262.98" style="fill:none;stroke:#263238;stroke-linecap:round;stroke-linejoin:round"></line><path d="M481.08,180.34s1.51,6.76-.18,9.76-5.07,6.94-4.13,8.82,5.07,3.76,2.44,6.76-4.88,1.31-4.88,1.31-.57,5.07-2.26,6l-1.69.94s.94,3.75-1.31,4.69-4.32.38-7.51-.94-14.27,10.71-14.27,10.71l-5.82-19,5.45-6.94a42.89,42.89,0,0,1-2.82-10c-1.12-6.38,9.2-2.63,9.2-2.63s10.33-4.69,10.89-7.7,5.63-7.5,9.57-6.94S481.08,180.34,481.08,180.34Z" style="fill:#c9c9c9;stroke:#263238;stroke-linecap:round;stroke-linejoin:round"></path><path d="M454.8,194.42s-1.5-7.7-5.63-8.08S445,194.42,445.6,197s5.45,5.07,7.7,3.2" style="fill:#c9c9c9;stroke:#263238;stroke-linecap:round;stroke-linejoin:round"></path><path d="M472.07,190.47s4.7-2.06,4.7,3.2" style="fill:none;stroke:#263238;stroke-linecap:round;stroke-linejoin:round"></path><path d="M474.46,197.18c-.36,1.08-1.09,1.82-1.63,1.64s-.69-1.21-.33-2.29,1.09-1.81,1.63-1.63S474.82,196.1,474.46,197.18Z" style="fill:#263238"></path><polygon points="442.79 204.74 454.43 229.15 447.48 232.9 437.72 209.06 442.79 204.74" style="fill:#fff;stroke:#263238;stroke-linecap:round;stroke-linejoin:round"></polygon><path d="M480,241.91l8.63.94,1.5-26.47s-5.63-1.13-6.38-1.5-3.56-4.51-3.38-6.2,3.19-3.75,3.19-3.75,2.45-5.63,4.13-5.07a6.22,6.22,0,0,1,2.63,1.69s5.63,2.07,7.14,4.51,1.31,9.95,1.31,9.95,6.38,40.73,6.38,43.17-.18,4.13-2.25,4.88-31.35-5.25-31.35-5.25Z" style="fill:#c9c9c9;stroke:#263238;stroke-linecap:round;stroke-linejoin:round"></path><path d="M448.19,225.69,436,206.3s-17.4-.5-18.49-.67-13.19-8.39-14.95-9S386,200,386,200l-7.87,8.87,10.52,2.7,15.05-5.82L418,214.27l15.26-2.45,14,16.58Z" style="fill:#263238;stroke:#263238;stroke-linecap:round;stroke-linejoin:round"></path><path d="M481.84,241.35l-11.08,24.78s-31.35-12-38.3-19.9-.18-20.84,5.63-23.28S481.84,241.35,481.84,241.35Z" style="fill:#FF513B;stroke:#263238;stroke-linecap:round;stroke-linejoin:round"></path><path d="M461.56,217.69l-5.82-5.06-.19,8.07S459.31,217.32,461.56,217.69Z" style="fill:#263238;stroke:#263238;stroke-linecap:round;stroke-linejoin:round"></path></g></svg>
